<svg xmlns="http://www.w3.org/2000/svg" viewBox="0 0 345.41 222.31"><defs><style>.cls-1{fill:#998673;}</style></defs><g id="Ebene_2" data-name="Ebene 2"><g id="Ebene_2-2" data-name="Ebene 2"><path class="cls-1" d="M171.76,36.24l.23.23c.17.16.34.32.52.47l.2.17.2-.17.5-.47.09-.09.13-.14h0c9.39-9,11.85-19.64,6.58-28.39a26.72,26.72,0,0,0-6.45-7h0l-.31-.24-.37-.28L172.71,0l-.18.12-.44.33-.14.1a27,27,0,0,0-6.75,7.3c-5.27,8.74-2.81,19.33,6.57,28.39ZM166.29,8.52a25.7,25.7,0,0,1,6.42-6.92,25.29,25.29,0,0,1,6.4,6.92c5,8.33,2.68,18.09-6.42,26.84C163.61,26.61,161.27,16.84,166.29,8.52Z"></path><path class="cls-1" d="M345.27,76c-.9-14.82-8.42-25.74-21.75-31.6-7.54-3.31-16.74-5-27.33-5-30.43,0-68.78,13.62-102.62,36.44a111.6,111.6,0,0,1-20.22-23.72l-.39-.65L172.7,51l-.26.44-.08.14-.31.51A111.8,111.8,0,0,1,151.83,75.8C118,53,79.65,39.36,49.21,39.36c-10.59,0-19.78,1.68-27.32,5C8.56,50.2,1,61.13.14,76-1,94.05,4.53,107.06,16.47,114.62c6.61,4.18,15.11,6.56,25.25,7.08a40.77,40.77,0,0,0,3,5.88c4.26,7,10.86,11.28,19.62,12.78A44.88,44.88,0,0,0,72,141c12.15,0,39.16-4.6,83.71-35.35a73.2,73.2,0,0,1,13.22,11c1.11,1.19,2.17,2.4,3.12,3.6l.67.86.24-.31.44-.54.16-.18h0c.88-1.11,1.85-2.23,3-3.42a73.9,73.9,0,0,1,13.22-11C234.27,136.39,261.28,141,273.43,141h0a46.14,46.14,0,0,0,7.64-.63c8.76-1.5,15.36-5.8,19.63-12.78a41.77,41.77,0,0,0,3-5.88c10.13-.51,18.62-2.89,25.24-7.08C340.88,107.06,346.37,94.05,345.27,76ZM172.7,53.43a114.29,114.29,0,0,0,19.79,23.11c-5.55,3.79-10.88,7.77-15.85,11.81-1.32,1.07-2.64,2.12-3.94,3.15-1.33-1-2.65-2.1-3.94-3.15-5-4.08-10.34-8-15.85-11.81A113.63,113.63,0,0,0,172.7,53.43ZM17.16,113.53C5.64,106.24.35,93.63,1.42,76c.87-14.31,8.13-24.85,21-30.5,7.4-3.25,16.44-4.9,26.85-4.9,30.08,0,68,13.47,101.59,36.06a178.59,178.59,0,0,1-20.5,15.68,138.27,138.27,0,0,0-41-6.4c-2.83,0-5.63.09-8.33.29C63.56,87.52,50.39,92.56,44,100.47c-4.44,5.47-5.4,12.3-2.8,19.79C31.46,119.64,23.16,117.32,17.16,113.53ZM45,101.28c7.1-8.77,23.78-14,44.6-14a134.45,134.45,0,0,1,39.35,6c-3.88,2.5-6.87,4.21-8.34,5-25.93,14.28-52.2,22.14-74,22.14-1.36,0-2.71,0-4-.09C39.87,113,40.68,106.58,45,101.28Zm26.2,38.34a39.94,39.94,0,0,1-6.64-.52c-8.38-1.44-14.69-5.54-18.74-12.18a38.81,38.81,0,0,1-2.67-5.17c.93,0,1.87.06,2.82.06a110,110,0,0,0,17.91-1.59c18.15-3,38.52-10.43,57.35-20.8,1.28-.7,4.72-2.65,9.3-5.65,1,.33,2,.67,3,1a104.6,104.6,0,0,1,21.09,10.15C109.59,136.23,81.29,139.62,71.19,139.62Zm62.78-46c-.69-.25-1.39-.48-2.09-.72a174,174,0,0,0,20.05-15.45c5.57,3.8,11,7.81,16,11.92,1.22,1,2.47,2,3.73,3-5.3,4.17-10.65,8.16-15.92,11.84A104.42,104.42,0,0,0,134,93.59Zm41.59,22.16c-1,1-1.94,2.15-2.86,3.28-.88-1.09-1.83-2.19-2.86-3.28a73.69,73.69,0,0,0-13-10.9c5.46-3.79,10.78-7.72,15.87-11.72,5.16,4,10.49,8,15.87,11.72A74.62,74.62,0,0,0,175.56,115.75Zm-1.82-23.44q1.89-1.49,3.71-3c5.09-4.14,10.48-8.15,16-11.92a176.09,176.09,0,0,0,20.06,15.45c-.71.24-1.41.47-2.1.72a104.54,104.54,0,0,0-21.7,10.51C184.3,100.32,178.92,96.36,173.74,92.31Zm125.85,34.61c-4.06,6.65-10.36,10.75-18.73,12.18a44.3,44.3,0,0,1-7.46.6c-11.94,0-38.53-4.53-82.53-34.82a103.84,103.84,0,0,1,21-10.09c1-.35,2-.69,3-1,4.82,3.15,8.34,5.12,9.3,5.65,18.83,10.37,39.2,17.75,57.36,20.8a110.38,110.38,0,0,0,18,1.59c.93,0,1.84,0,2.75,0A40.28,40.28,0,0,1,299.59,126.92Zm3.23-6.58c-1.31.06-2.66.09-4,.09-21.8,0-48.07-7.86-74-22.14-1.15-.63-4.22-2.37-8.34-5a134.38,134.38,0,0,1,39.34-6c20.83,0,37.51,5.23,44.62,14C304.72,106.57,305.52,113,302.82,120.34Zm25.42-6.81c-6,3.79-14.3,6.11-24,6.73,2.59-7.49,1.63-14.32-2.82-19.79-6.4-7.91-19.56-13-37.06-14.21-2.7-.2-5.5-.29-8.32-.29a138.38,138.38,0,0,0-41,6.4,180,180,0,0,1-20.51-15.68c33.57-22.58,71.52-36,101.6-36,10.42,0,19.45,1.64,26.85,4.89,12.86,5.65,20.11,16.19,21,30.5C345.06,93.63,339.77,106.24,328.24,113.53Z"></path><path class="cls-1" d="M173.39,134.73l-.46-.54-.23-.24-.22.25c-.14.15-.27.3-.46.53h0l-.17.2h0a62.31,62.31,0,0,0-10.56,17.73c-8.12,21.06-4.14,46.66,10.63,68.52h0l.12.17c.13.21.27.41.42.61l.25.35.3-.44.35-.52.06-.09c14.81-21.87,18.8-47.51,10.68-68.6A62.25,62.25,0,0,0,173.39,134.73Zm-.68,85.3c-14.3-21.4-18.12-46.37-10.21-66.9a60.89,60.89,0,0,1,10.21-17.21,61,61,0,0,1,10.2,17.21C190.82,173.64,187,198.61,172.71,220Z"></path></g></g></svg>